<?xml version="1.0" encoding="utf-8" ?>
<svg baseProfile="full" height="300" version="1.1" width="300" xmlns="http://www.w3.org/2000/svg" xmlns:ev="http://www.w3.org/2001/xml-events" xmlns:xlink="http://www.w3.org/1999/xlink"><defs /><g fill="none" stroke="black" stroke-width="2"><line x1="189" x2="48" y1="97" y2="210" /><line x1="242" x2="239" y1="269" y2="128" /><line x1="259" x2="291" y1="268" y2="17" /><line x1="243" x2="248" y1="2" y2="81" /><line x1="148" x2="192" y1="30" y2="95" /><line x1="114" x2="281" y1="172" y2="4" /><line x1="198" x2="64" y1="64" y2="66" /><line x1="73" x2="114" y1="287" y2="71" /><line x1="143" x2="0" y1="69" y2="116" /><line x1="67" x2="103" y1="110" y2="8" /><line x1="288" x2="202" y1="222" y2="264" /><line x1="132" x2="22" y1="186" y2="184" /><line x1="214" x2="167" y1="76" y2="66" /><line x1="124" x2="178" y1="132" y2="9" /><line x1="266" x2="25" y1="42" y2="130" /><line x1="102" x2="116" y1="191" y2="121" /><line x1="260" x2="43" y1="245" y2="87" /><line x1="160" x2="21" y1="293" y2="277" /><line x1="258" x2="49" y1="53" y2="69" /><line x1="184" x2="59" y1="155" y2="113" /><circle cx="138" cy="138" fill="black" r="5" /><circle cx="274" cy="249" fill="black" r="5" /><circle cx="299" cy="4" fill="black" r="5" /><circle cx="112" cy="92" fill="black" r="5" /><circle cx="74" cy="41" fill="black" r="5" /><circle cx="210" cy="241" fill="black" r="5" /><circle cx="107" cy="184" fill="black" r="5" /><circle cx="135" cy="165" fill="black" r="5" /><circle cx="16" cy="31" fill="black" r="5" /><circle cx="238" cy="104" fill="black" r="5" /></g></svg>